<?xml version="1.0" encoding="UTF-8"?>
<svg width="21px" height="21px" viewBox="0 0 21 21" version="1.1" xmlns="http://www.w3.org/2000/svg" xmlns:xlink="http://www.w3.org/1999/xlink">
    <!-- Generator: Sketch 53.2 (72643) - https://sketchapp.com -->
    <title>商店</title>
    <desc>Created with Sketch.</desc>
    <g id="Page-1" stroke="none" stroke-width="1" fill="none" fill-rule="evenodd">
        <g id="DC首页" transform="translate(-125.000000, -688.000000)" fill-rule="nonzero">
            <g id="Group-24" transform="translate(0.000000, 670.000000)">
                <g id="Group-21" transform="translate(116.000000, 18.000000)">
                    <g id="商店" transform="translate(9.000000, 0.000000)">
                        <rect id="Rectangle" fill="#000000" opacity="0" x="0" y="0" width="21" height="21"></rect>
                        <path d="M18.8492285,14.1289088 L18.8492285,18.6113317 C18.8492285,19.2882182 18.3115994,19.837122 17.6617315,19.837122 L3.45650023,19.837122 C2.80399139,19.837122 2.26910478,19.2890308 2.26910478,18.6113317 L2.26910478,14.1289088 C2.26910478,13.8079362 2.01019366,13.5475015 1.69104938,13.5475015 C1.37170197,13.5475015 1.11299399,13.8079362 1.11299399,14.1289088 L1.11299399,18.6113317 C1.11299399,19.9263036 2.16062415,20.9995303 3.45650021,20.9995303 L17.6617314,20.9995303 C18.9540524,20.9995303 20.0052376,19.9261004 20.0052376,18.6113317 L20.0052376,14.1289088 C20.0052376,13.8079362 19.7465297,13.5475015 19.4272838,13.5475015 C19.108038,13.5475015 18.8492284,13.8079362 18.8492284,14.1289088 L18.8492284,14.1289088 L18.8492284,14.1289088 L18.8492285,14.1289088 Z M1.38226563,8.61358395 L1.38226563,2.98443567 C1.38226563,2.50537391 1.77190199,2.1160423 2.2547829,2.1160423 L18.8635504,2.1160423 C19.3445014,2.1160423 19.7357629,2.50805547 19.7357629,2.98443567 L19.7357629,8.61358395 C19.7357629,8.93455654 19.9947756,9.19478811 20.314123,9.19478811 C20.6333689,9.19478811 20.8921784,8.93455654 20.8921784,8.61358395 L20.8921784,2.98443567 C20.8921784,1.86499296 19.9818758,0.953430803 18.8635504,0.953430803 L2.2547829,0.953430803 C1.13503548,0.953430803 0.226154845,1.86170199 0.226154845,2.98443567 L0.226154845,8.61358395 C0.226154845,8.93455654 0.484964382,9.19478811 0.804210237,9.19478811 C1.12355765,9.19478811 1.38226563,8.93461747 1.38226563,8.61358395 L1.38226563,8.61358395 L1.38226563,8.61358395 Z M13.8586125,8.05025673 C13.8127013,8.03847419 13.7646569,8.03233914 13.715089,8.03233914 C13.3960463,8.03233914 13.1370336,8.29250978 13.1370336,8.61358395 C13.1370336,10.0873154 11.9798055,11.2767423 10.5590955,11.2767423 C9.13828394,11.2767423 7.98115744,10.0873763 7.98115744,8.61358395 C7.98115744,8.29250978 7.72224633,8.03233914 7.40320362,8.03233914 C7.35383886,8.03233914 7.30548982,8.03847419 7.25968013,8.05025673 C7.21376886,8.03847419 7.16572455,8.03233914 7.11625819,8.03233914 C6.79691078,8.03233914 6.5382028,8.29250978 6.5382028,8.61358395 C6.5382028,10.0873154 5.38117785,11.2767423 3.9602647,11.2767423 C2.53935154,11.2767423 1.38226565,10.087356 1.38226565,8.61358395 C1.38226565,8.29250978 1.12355767,8.03233914 0.804210259,8.03233914 C0.484964424,8.03233914 0.226154866,8.29250978 0.226154866,8.61358395 C0.226154866,10.723674 1.89511077,12.4391303 3.96030532,12.4391303 C5.39168056,12.4391303 6.63291003,11.6147589 7.25982233,10.4063378 L7.25982233,10.4063378 C7.88663306,11.614759 9.12765935,12.4391303 10.5592378,12.4391303 C11.9907146,12.4391303 13.2318425,11.6147589 13.8587548,10.4063378 C14.4855655,11.614759 15.7264902,12.4391303 17.1581702,12.4391303 C19.2234663,12.4391303 20.8922191,10.7236131 20.8922191,8.61358395 C20.8922191,8.29250978 20.6334095,8.03233914 20.3142653,8.03233914 C19.9949179,8.03233914 19.7359051,8.29250978 19.7359051,8.61358395 C19.7359051,10.0873154 18.5789818,11.2767423 17.1581702,11.2767423 C15.7374602,11.2767423 14.5802321,10.0873763 14.5802321,8.61358395 C14.5802321,8.29250978 14.3215241,8.03233914 14.0020751,8.03233914 C13.952365,8.03237976 13.9044223,8.03847419 13.8586126,8.05025673 L13.8586126,8.05025673 L13.8586125,8.05025673 Z" id="Shape" fill="#6A6A6A"></path>
                    </g>
                </g>
            </g>
        </g>
    </g>
</svg>