<?xml version="1.0" standalone="no"?><!DOCTYPE svg PUBLIC "-//W3C//DTD SVG 1.1//EN" "http://www.w3.org/Graphics/SVG/1.1/DTD/svg11.dtd"><svg t="1562734403688" class="icon" viewBox="0 0 1025 1024" version="1.1" xmlns="http://www.w3.org/2000/svg" p-id="1690" width="32.03125" height="32" xmlns:xlink="http://www.w3.org/1999/xlink"><defs><style type="text/css"></style></defs><path d="M653.497915 64.055188l10.946032 0c42.083123 6.345019 29.709087 69.822205 29.709087 125.106367l0 647.412897c0 54.368159 11.695034 115.040337-26.585078 121.977357-23.251068 4.209012-43.091126-15.009044-59.425174-26.585078-101.228297-71.74421-195.197572-137.016401-297.12087-209.551614-14.398042-10.24603-38.739113-24.097071-39.096115-45.349133-0.308001-18.142053 14.657043-35.556104 34.402101-35.967105 16.97005-0.353001 31.147091 14.696043 43.789128 23.456069 89.916263 62.337183 191.878562 130.400382 278.356815 190.782559L628.473841 170.398499c-89.011261 60.172176-178.564523 129.017378-270.539793 197.035577-13.395039 9.910029-29.050085 23.497069-40.655119 26.587078-27.28508 7.264021-61.41818 1.564005-92.26327 1.564005l-92.26727 0c-3.648011 73.498215-0.519002 153.774451-1.561005 229.878673 41.565122-1.637005 78.50623-2.996009 79.752234 32.839096 0.313001 9.029026-4.365013 25.983076-18.768055 32.838096-18.842055 8.971026-102.3243 5.504016-114.155334-3.129009-7.450022-5.432016-11.020032-15.562046-14.075041-25.021073L63.941187 359.611054c6.184018-43.603128 78.916231-31.274092 125.106367-31.274092 29.978088 0 79.165232 6.91402 106.338312 0 12.495037-3.183009 29.797087-22.092065 43.784128-32.843096C416.45622 236.118692 486.924427 186.130545 561.235644 129.73238 587.522721 109.780322 624.65383 76.596224 653.497915 64.055188L653.497915 64.055188zM653.497915 64.055188" fill="#FF3735" p-id="1691"></path><path d="M960.005813 287.676843l0 10.951032c-12.520037 26.449077-42.616125 31.264092-75.06422 43.784128-21.936064 8.463025-42.909126 23.310068-64.117188 20.32806-14.310042-2.009006-27.22608-16.807049-26.585078-31.274092 1.129003-25.485075 37.927111-32.922096 60.988179-42.225124 36.285106-14.638043 89.100261-46.953138 104.773307-1.564005L960.005813 287.676843zM960.005813 287.676843" fill="#FF3735" p-id="1692"></path><path d="M960.005813 489.410434l0 12.510037c-7.822023 34.458101-46.117135 26.587078-86.010252 26.587078-22.992067 0-44.689131 3.637011-59.423174-1.564005-32.101094-11.338033-22.430066-56.403165 1.565005-64.118188 13.044038-4.194012 33.753099-1.564005 59.423174-1.564005C919.614694 461.261351 953.301793 455.380334 960.005813 489.410434L960.005813 489.410434zM960.005813 489.410434" fill="#FF3735" p-id="1693"></path><path d="M960.005813 713.033089l0 15.639046c-12.090035 57.95317-70.956208 15.518045-100.085293 0-22.293065-11.875035-51.416151-20.269059-60.988179-40.660119-12.066035-25.690075 2.498007-58.446171 26.585078-59.420174 19.130056-0.777002 45.858134 18.666055 60.988179 26.582078C919.799695 672.600971 948.261778 680.330993 960.005813 713.033089L960.005813 713.033089zM960.005813 713.033089" fill="#FF3735" p-id="1694"></path></svg>