<?xml version="1.0" encoding="UTF-8"?>
<svg width="75px" height="21px" viewBox="0 0 75 21" version="1.1" xmlns="http://www.w3.org/2000/svg" xmlns:xlink="http://www.w3.org/1999/xlink">
    <!-- Generator: Sketch 53.2 (72643) - https://sketchapp.com -->
    <title>Group 5</title>
    <desc>Created with Sketch.</desc>
    <defs>
        <path d="M-2.13162821e-14,5.32907052e-15 L75,5.32907052e-15 L75,21 L12.0142023,21 C7.82521985,21 4.19010076,18.1099108 3.24583823,14.0287416 L-2.13162821e-14,5.32907052e-15 Z" id="path-1"></path>
    </defs>
    <g id="Page-1" stroke="none" stroke-width="1" fill="none" fill-rule="evenodd">
        <g id="DC罗盘" transform="translate(-300.000000, -116.000000)">
            <g id="Group-10" transform="translate(0.000000, 116.000000)">
                <g id="Group-11" transform="translate(298.000000, 0.000000)">
                    <g id="Group-2">
                        <g id="Group-4" transform="translate(2.000000, 0.000000)">
                            <g id="Group-5" transform="translate(-0.000000, 0.000000)">
                                <mask id="mask-2" fill="white">
                                    <use xlink:href="#path-1"></use>
                                </mask>
                                <use id="Rectangle" fill="#FF3735" xlink:href="#path-1"></use>
                                <g id="勋章" mask="url(#mask-2)" fill-rule="nonzero">
                                    <g transform="translate(57.000000, 2.000000)">
                                        <rect id="Rectangle" fill="#000000" opacity="0" x="0" y="0" width="18" height="18"></rect>
                                        <path d="M10.6248867,7.32603516 L10.6241836,7.32765234 L10.6259414,7.32912891 L10.7711191,6.99096094 C10.9560735,6.55917884 11.0513817,6.09432314 11.0512617,5.6245957 C11.0512617,5.24079492 10.7400586,4.92955664 10.3562578,4.92955664 L9.3695625,4.92955664 C9.20278125,4.92955664 9.06760547,5.06471484 9.06760547,5.23135547 L9.06760547,5.48971875 C9.06938086,5.68272656 8.92186523,5.844375 8.72941992,5.85998437 C8.62417969,5.87545312 8.51742773,5.84275781 8.43881836,5.77105664 C8.36019894,5.69929585 8.31799092,5.59600237 8.32385742,5.48971875 L8.32385742,5.22722461 C8.32385742,5.06058398 8.18869922,4.92542578 8.02190039,4.92542578 L7.08201563,4.92542578 C6.88491211,4.92542578 6.69587695,5.00375391 6.55674609,5.14332422 C6.41761523,5.28289453 6.33958594,5.47207031 6.34018359,5.66920898 C6.34018359,6.10910156 6.42026953,6.54547852 6.57676758,6.95666602 L6.72873047,7.35670898 C7.83376172,6.36526758 9.50428125,6.35213672 10.6248867,7.32603516 L10.6248867,7.32603516 Z" id="Path" fill="#FF7E00" opacity="0.4"></path>
                                        <path d="M10.6259414,7.32912891 L10.5636797,7.47326953 C10.4598633,7.63623633 10.3468008,7.69027148 10.1850117,7.63623633 C10.1101392,7.61061214 10.0496026,7.55450726 10.0183711,7.48179492 C9.98711104,7.40905479 9.98806882,7.32648761 10.0210078,7.25449219 C9.78721534,7.13647296 9.53782846,7.05229838 9.28033594,7.00449609 C8.76960626,6.92914111 8.24827681,6.97637311 7.75940625,7.14229102 C7.5815471,7.19234045 7.41208714,7.26847215 7.25654883,7.36820508 C7.1602207,7.4434043 7.08140039,7.5232793 7.01066602,7.56588867 C7.00820508,7.56736523 7.00579687,7.56861328 7.00333594,7.57000195 C6.96346875,7.59311719 6.92544727,7.60398047 6.88696875,7.59367969 C6.83280709,7.5718705 6.79079595,7.52760132 6.77184961,7.47237305 L6.72827344,7.35811523 C6.11432469,7.91278905 5.76503228,8.7022469 5.76748828,9.52964648 C5.76188086,10.9588711 6.79508789,12.1807969 8.20548633,12.4125469 C8.324573,11.7006721 8.75636882,11.0796116 9.38220117,10.7200547 C10.0080634,10.3603192 10.7621966,10.2999819 11.4372949,10.5556289 C11.5585865,10.2271949 11.620396,9.87977869 11.6198262,9.52966406 C11.6223586,8.6869357 11.2598839,7.88438958 10.6259414,7.32912891 L10.6259414,7.32912891 Z M8.68689844,10.6666348 C8.46406055,10.6487227 8.26041797,10.5677051 8.09296875,10.4418984 C7.81245703,10.2331055 7.63250977,9.89915625 7.63250977,9.52595508 C7.63250977,8.93090039 8.08961133,8.43577734 8.68278516,8.38838672 C8.95957697,8.36628023 9.23493534,8.44582987 9.45729492,8.61213867 C9.57471595,8.69909757 9.67432771,8.80781594 9.75070898,8.93237695 C9.97525143,9.29848934 9.97525143,9.75966105 9.75070898,10.1257734 C9.52606055,10.491873 9.11501367,10.7009648 8.68689844,10.6666348 L8.68689844,10.6666348 Z" id="Shape" fill="#FF7E00" opacity="0.4"></path>
                                        <path d="M7.01066602,7.56588867 C7.08138281,7.5232793 7.1602207,7.4434043 7.25654883,7.36820508 C7.25682602,7.36799799 7.25709573,7.36778105 7.25735742,7.36755469 C7.41260771,7.267981 7.58180997,7.19206184 7.75940625,7.14229102 C8.2482785,6.97638107 8.76960603,6.92914924 9.28033594,7.00449609 C9.53782774,7.05230115 9.78721424,7.1364756 10.0210078,7.25449219 C9.98903022,7.32595802 9.98849458,7.40755999 10.0195312,7.47943945 C10.050402,7.55143814 10.1100549,7.60718857 10.1839746,7.633125 C10.3468008,7.68701953 10.4546953,7.633125 10.5626426,7.47029883 L10.6241836,7.32763477 L10.6248867,7.32601758 C9.50428125,6.35213672 7.83376172,6.36526758 6.72871289,7.35669141 L6.72825586,7.3570957 L6.77183203,7.47119531 C6.79097089,7.52668388 6.83339236,7.57104439 6.8879707,7.59264258 C6.92502539,7.60341797 6.96290625,7.5930293 7.00331836,7.57000195 C7.00579688,7.56861328 7.0081875,7.56736523 7.01066602,7.56588867 L7.01066602,7.56588867 Z M8.09201953,9.55348242 C8.09208984,9.55573242 8.09214258,9.558 8.09224805,9.56021484 C8.10873633,9.87435352 8.36864648,10.1241035 8.68689844,10.1241035 C9.01473047,10.1241035 9.28063477,9.85902539 9.28232227,9.53154492 C9.28063477,9.20408203 9.01473047,8.93928516 8.68689844,8.93928516 C8.38917773,8.93928516 8.14252148,9.15764062 8.09841797,9.44298633 C8.09811914,9.44484961 8.0979082,9.44676562 8.09764453,9.44866406 C8.09653711,9.45639844 8.0955,9.46418555 8.09467383,9.47204297 C8.09435742,9.47513672 8.09414648,9.4782832 8.09388281,9.48142969 C8.09328516,9.48819727 8.09270508,9.49498242 8.09231836,9.50180273 C8.09214258,9.50547656 8.09205469,9.50916797 8.09194922,9.51287695 C8.0917207,9.51909961 8.09149219,9.52528711 8.09147461,9.53154492 C8.09149219,9.53891016 8.09170313,9.54620508 8.09201953,9.55348242 L8.09201953,9.55348242 Z" id="Shape" fill="#FF7E00" opacity="0.4"></path>
                                        <path d="M9.75069141,8.93235938 C9.67430487,8.80780232 9.57469396,8.69908488 9.45727734,8.61212109 C9.23562355,8.44781563 8.96192727,8.3694213 8.68689844,8.39146289 C8.09388281,8.43887109 7.63662305,8.93397656 7.63662305,9.52906641 C7.63662305,9.90050977 7.8148125,10.2329473 8.09295117,10.4418984 C8.26558038,10.5716713 8.47158482,10.6496211 8.68688086,10.6666348 C9.11499609,10.7009473 9.52604297,10.491873 9.75069141,10.1257383 C9.97523478,9.75963248 9.97523478,9.29846518 9.75069141,8.93235938 L9.75069141,8.93235938 Z M8.09230078,9.50182031 C8.09266992,9.49498242 8.09326758,9.48821484 8.09386523,9.48144727 C8.09414648,9.47830078 8.09433984,9.4751543 8.09465625,9.47206055 C8.09548242,9.46418555 8.09650195,9.45641602 8.09762695,9.44868164 C8.0979082,9.4467832 8.09810156,9.44486719 8.09840039,9.44300391 C8.1423457,9.156375 8.38863281,8.93668359 8.68688086,8.93401172 L8.68688086,8.93313281 C9.01575,8.93313281 9.282375,9.19959961 9.282375,9.52850391 C9.282375,9.52955859 9.28230469,9.53054297 9.28230469,9.53158008 C9.28061719,9.85906055 9.01471289,10.1241387 8.68688086,10.1241387 C8.36862891,10.1241387 8.10871875,9.87438867 8.09223047,9.56025 C8.092125,9.55803516 8.09208984,9.55576758 8.09200195,9.55351758 C8.09168555,9.54624023 8.09147461,9.53894531 8.09143945,9.53158008 C8.09143945,9.53054297 8.09135156,9.52955859 8.09135156,9.52850391 C8.0914043,9.52326562 8.0917207,9.51809766 8.09191406,9.51291211 C8.09205469,9.50918555 8.092125,9.50549414 8.09230078,9.50182031 L8.09230078,9.50182031 Z" id="Shape" fill="#FFFFFF" opacity="0.4"></path>
                                        <path d="M9.38220117,10.7200723 C8.75636364,11.0796236 8.32456591,11.7006868 8.20548633,12.4125645 C8.36734365,12.4396096 8.53116433,12.4531913 8.69526563,12.4531699 C9.91676953,12.4584961 11.0117988,11.7008789 11.4372949,10.5556465 C10.7621966,10.2999994 10.0080634,10.3603368 9.38220117,10.7200723 L9.38220117,10.7200723 Z" id="Path" fill="#FD973F" opacity="0.4"></path>
                                        <path d="M9.22833984,5.98102734 C9.22833984,5.81436914 9.0932168,5.67921094 8.92641797,5.67921094 L7.98656836,5.67921094 C7.78946362,5.67914001 7.60043942,5.75753937 7.46124518,5.89709312 C7.32205093,6.03664686 7.2441394,6.22587266 7.24471875,6.42297656 C7.24471875,6.86288672 7.32480469,7.29924609 7.48128516,7.71043359 L7.63381055,8.11190039 C8.73942188,7.12065234 10.4102754,7.1081543 11.530459,8.08289648 L11.6756191,7.74474609 C11.8605823,7.31296614 11.9558967,6.84810981 11.9557793,6.37838086 C11.9557793,5.99458008 11.6445762,5.68335938 11.2607754,5.68335938 L10.2740625,5.68335938 C10.1072812,5.68335938 9.97210547,5.8185 9.97210547,5.9851582 L9.97210547,6.24352148 C9.97389844,6.4365293 9.82636523,6.59819531 9.63397266,6.61378711 C9.52865511,6.62928518 9.42194725,6.59664215 9.34332503,6.52487502 C9.26470281,6.45310788 9.22248735,6.34981223 9.22833984,6.24352148 L9.22833984,5.98102734 Z" id="Path" fill="#FF7E00"></path>
                                        <path d="M10.1838164,7.75710352 C9.6733368,7.6823332 9.15239569,7.72996644 8.66394141,7.89607617 C8.48594227,7.94615054 8.31635904,8.0223614 8.16073242,8.12221875 C8.00528906,8.23851562 7.90045313,8.37660937 7.79150391,8.34746484 C7.73734625,8.32565542 7.69534071,8.28138538 7.67640234,8.2261582 L7.63280859,8.11190039 C7.01887187,8.66659031 6.66958248,9.45604772 6.67202344,10.2834492 C6.66645117,11.7126738 7.69964063,12.934582 9.11000391,13.166332 C9.22910673,12.4544679 9.66090756,11.8334224 10.2867363,11.473875 C10.9125826,11.1141084 11.6667247,11.0537699 12.3418125,11.3094492 C12.4631294,10.9810149 12.5249512,10.6335905 12.5243789,10.2834668 C12.5269028,9.4407315 12.1644226,8.63818117 11.5304766,8.08291406 L11.4682148,8.22705469 C11.3643984,8.39002148 11.2513359,8.44407422 11.0895645,8.39002148 C11.0146879,8.36439029 10.9541428,8.30828934 10.9228887,8.23558008 C10.8916412,8.16282862 10.8926117,8.08025667 10.9255605,8.00825977 C10.6914271,7.88990113 10.4416932,7.80534066 10.1838164,7.75710352 L10.1838164,7.75710352 Z M10.6511133,10.8764297 C10.4264648,11.2424238 10.0154004,11.451498 9.58728516,11.4173262 C8.99412891,11.3699531 8.53700977,10.8746543 8.53700977,10.2797402 C8.53700977,9.68466797 8.99412891,9.1895625 9.58728516,9.14217187 C10.0154132,9.10798114 10.4264973,9.31699422 10.6511133,9.68306836 C10.8756387,10.0490449 10.8756387,10.5102949 10.6511133,10.8764297 L10.6511133,10.8764297 Z" id="Shape" fill="#FF7E00"></path>
                                        <path d="M9.59141602,9.69308789 C9.2625293,9.69308789 8.9959043,9.95953711 8.9959043,10.2884414 C8.99869922,10.6161504 9.26368945,10.8811758 9.59141602,10.8840762 C9.92032031,10.8840762 10.1869453,10.6173281 10.1869453,10.2884414 C10.1869277,9.95953711 9.92030273,9.69308789 9.59141602,9.69308789 Z M10.9240313,8.23320703 C10.9549277,8.30520439 11.0145871,8.3609554 11.0885098,8.38691016 C11.2513184,8.44080469 11.359248,8.38691016 11.4671426,8.22408398 L11.5294395,8.07980273 C10.408623,7.10578125 8.73780469,7.11901758 7.63277344,8.11086328 L7.67636719,8.22496289 C7.69549964,8.28045938 7.73792244,8.32482771 7.79250586,8.34642773 C7.89630469,8.3765918 8.00625586,8.24262891 8.161875,8.12130469 C8.31712982,8.02174358 8.48633104,7.94583082 8.66392383,7.89605859 C9.15278498,7.73012492 9.67411253,7.68289255 10.1848359,7.75826367 C10.4423411,7.80605163 10.6917407,7.89022061 10.925543,8.00824219 C10.8935706,8.0797128 10.8930223,8.1613132 10.9240312,8.23320703 L10.9240313,8.23320703 Z" id="Shape" fill="#FF7E00"></path>
                                        <path d="M12.3417949,11.3094316 C11.666706,11.0537599 10.9125673,11.1140982 10.2867188,11.4738574 C9.66088653,11.8334011 9.22908442,12.4544484 9.10998633,13.1663145 C9.27185343,13.1933799 9.4356865,13.2069734 9.59980078,13.2069551 C10.8212871,13.2122461 11.916334,12.4546641 12.3417949,11.3094316 L12.3417949,11.3094316 Z" id="Path" fill="#FF7E00"></path>
                                        <path d="M12.3417949,11.3094316 C11.666706,11.0537599 10.9125673,11.1140982 10.2867188,11.4738574 C9.66088653,11.8334011 9.22908442,12.4544484 9.10998633,13.1663145 C9.27185343,13.1933799 9.4356865,13.2069734 9.59980078,13.2069551 C10.8212871,13.2122461 11.916334,12.4546641 12.3417949,11.3094316 L12.3417949,11.3094316 Z" id="Path" fill="#FD973F"></path>
                                        <path d="M13.7592422,5.36526563 C13.3770234,5.36526563 13.0661719,5.05439648 13.0661719,4.67219531 C13.0661719,4.29001172 13.3770234,3.979125 13.7592422,3.979125 C14.1414434,3.979125 14.4523125,4.29001172 14.4523125,4.67219531 C14.4523125,5.05439648 14.1414434,5.36526563 13.7592422,5.36526563 Z M13.7592422,4.28716406 C13.5468809,4.28716406 13.3742461,4.45981641 13.3742461,4.67219531 C13.3742461,4.88457422 13.5468809,5.05722656 13.7592422,5.05722656 C13.9716211,5.05722656 14.144291,4.88457422 14.144291,4.67219531 C14.144291,4.45985156 13.9716211,4.28716406 13.7592422,4.28716406 Z" id="Shape" fill="#FFF7EC"></path>
                                        <path d="M17.1476016,9.21566602 C16.8504434,9.21566602 16.6085508,8.97380859 16.6085508,8.67659766 C16.6085508,8.37938672 16.8504258,8.1375293 17.1476016,8.1375293 C17.4447949,8.1375293 17.6866523,8.37938672 17.6866523,8.67659766 C17.6866523,8.97380859 17.4447598,9.21566602 17.1476016,9.21566602 Z M17.1476016,8.44558594 C17.0202305,8.44558594 16.9165898,8.54922656 16.9165898,8.67661523 C16.9165898,8.80400391 17.0202305,8.90762695 17.1476016,8.90762695 C17.2749902,8.90762695 17.378666,8.80400391 17.378666,8.67661523 C17.378666,8.54922656 17.2749902,8.44558594 17.1476016,8.44558594 Z" id="Shape" fill="#FFC879"></path>
                                        <polygon id="Path" fill="#FFD495" points="16.1397246 7.5669082 16.2126387 7.04758008 15.5514902 7.16936133 15.5961563 6.46066406 14.918748 6.58552148 14.9755781 5.68005469 15.283002 5.69932031 15.2508516 6.21100195 15.9282422 6.08614453 15.8835762 6.79485937 16.5772617 6.66703125 16.498582 7.22638477 17.0295117 7.17989063 17.0562832 7.4867168"></polygon>
                                    </g>
                                </g>
                            </g>
                        </g>
                    </g>
                </g>
            </g>
        </g>
    </g>
</svg>