<?xml version="1.0" encoding="UTF-8"?>
<svg width="24px" height="23px" viewBox="0 0 24 23" version="1.1" xmlns="http://www.w3.org/2000/svg" xmlns:xlink="http://www.w3.org/1999/xlink">
    <!-- Generator: Sketch 53.2 (72643) - https://sketchapp.com -->
    <title>195礼物、礼品、奖品</title>
    <desc>Created with Sketch.</desc>
    <g id="Page-1" stroke="none" stroke-width="1" fill="none" fill-rule="evenodd">
        <g id="DC罗盘" transform="translate(-333.000000, -91.000000)" fill-rule="nonzero">
            <g id="195礼物、礼品、奖品" transform="translate(332.000000, 89.000000)">
                <rect id="Rectangle" fill="#000000" opacity="0" x="0" y="0" width="27" height="27"></rect>
                <path d="M13.922459,6.9059422 L12.0587973,6.9059422 L12.0587973,12.1418263 L1,12.1418263 L1,7.93996353 C1,7.27692695 1.53821265,6.74807634 2.2156644,6.74807634 L7.25504853,6.74807634 C5.90014504,6.4718111 4.88798393,5.90086293 4.84781881,4.84842392 C4.81033136,3.61180807 6.23217673,1.60954284 8.30469709,2.06735381 C10.446837,2.54095137 11.9436573,4.16960075 13.0897021,5.56408245 C14.2464577,4.14328977 15.8851947,2.30941479 18.1183755,2.01999406 C19.9873926,1.78845747 21.5297333,3.61970136 21.3315854,4.83000623 C21.1628919,5.89033854 20.1293094,6.46654891 18.8092157,6.74544525 L23.7843356,6.74544525 C24.4591097,6.74544525 25,7.27692695 25,7.93733243 L25,12.1391952 L13.9465581,12.1391952 L13.922459,6.9059422 Z M8.53497713,3.16715259 C7.50139462,2.76722576 6.8962401,3.19609466 6.45977909,3.9038599 C6.22146603,4.30378672 5.96976459,4.83526843 6.34731675,5.22203977 C7.34073413,6.22711903 10.0692848,6.1534483 11.9008145,5.96664037 C11.0332478,4.90893916 9.97288854,3.72494527 8.53497713,3.16715259 L8.53497713,3.16715259 Z M19.8374428,5.21414647 C20.5497043,4.31957331 19.1546357,2.46201844 17.6578155,3.14610381 C16.2252594,3.80914039 15.1943546,4.88525928 14.3053665,5.94822269 C15.0711815,6.01400013 15.8477072,6.02978671 16.6188776,5.99295135 C17.5560638,5.95611598 19.2885195,5.89296964 19.8374428,5.21414647 Z M2.30402767,13.104808 L2.30402767,20.7165732 C2.30402767,23.0714055 4.26676336,25 6.66328238,25 L12.0721857,25 L12.0721857,13.104808 L2.30402767,13.104808 Z M13.930492,13.104808 L13.930492,25 L19.342073,25 C21.738592,25 23.7013277,23.0714055 23.7013277,20.7165732 L23.7013277,13.104808 L13.930492,13.104808 Z" id="Shape" fill="#FCB31C"></path>
            </g>
        </g>
    </g>
</svg>