<?xml version="1.0" encoding="UTF-8"?>
<svg width="23px" height="19px" viewBox="0 0 23 19" version="1.1" xmlns="http://www.w3.org/2000/svg" xmlns:xlink="http://www.w3.org/1999/xlink">
    <!-- Generator: Sketch 53.2 (72643) - https://sketchapp.com -->
    <title>钱包</title>
    <desc>Created with Sketch.</desc>
    <g id="Page-1" stroke="none" stroke-width="1" fill="none" fill-rule="evenodd">
        <g id="DC首页" transform="translate(-255.000000, -689.000000)" fill-rule="nonzero">
            <g id="Group-24" transform="translate(0.000000, 670.000000)">
                <g id="Group-22" transform="translate(219.000000, 16.000000)">
                    <g id="钱包" transform="translate(35.000000, 0.000000)">
                        <rect id="Rectangle" fill="#000000" opacity="0" x="0" y="0" width="25" height="25"></rect>
                        <path d="M19.140625,3.125 L5.859375,3.125 C3.7109375,3.125 1.953125,4.8828125 1.953125,7.03125 L1.953125,17.96875 C1.953125,20.1171875 3.7109375,21.875 5.859375,21.875 L19.140625,21.875 C21.2890625,21.875 23.046875,20.1171875 23.046875,17.96875 L23.046875,7.03125 C23.046875,4.8828125 21.2890625,3.125 19.140625,3.125 Z M21.484375,14.84375 L14.453125,14.84375 C13.1640625,14.84375 12.109375,13.7890625 12.109375,12.5 C12.109375,11.2109375 13.1640625,10.15625 14.453125,10.15625 L21.484375,10.15625 L21.484375,14.84375 Z M14.453125,8.59375 C12.3046875,8.59375 10.546875,10.3515625 10.546875,12.5 C10.546875,14.6484375 12.3046875,16.40625 14.453125,16.40625 L21.484375,16.40625 L21.484375,17.96875 C21.484375,19.2578125 20.4296875,20.3125 19.140625,20.3125 L5.859375,20.3125 C4.5703125,20.3125 3.515625,19.2578125 3.515625,17.96875 L3.515625,7.03125 C3.515625,5.7421875 4.5703125,4.6875 5.859375,4.6875 L19.140625,4.6875 C20.4296875,4.6875 21.484375,5.7421875 21.484375,7.03125 L21.484375,8.59375 L14.453125,8.59375 Z M13.671875,12.5 C13.671875,12.9314725 14.0216525,13.28125 14.453125,13.28125 C14.8845975,13.28125 15.234375,12.9314725 15.234375,12.5 C15.234375,12.0685275 14.8845975,11.71875 14.453125,11.71875 C14.0216525,11.71875 13.671875,12.0685275 13.671875,12.5 Z" id="Shape" fill="#FF3735"></path>
                    </g>
                </g>
            </g>
        </g>
    </g>
</svg>