<?xml version="1.0" encoding="UTF-8"?>
<svg width="21px" height="21px" viewBox="0 0 21 21" version="1.1" xmlns="http://www.w3.org/2000/svg" xmlns:xlink="http://www.w3.org/1999/xlink">
    <!-- Generator: Sketch 53.2 (72643) - https://sketchapp.com -->
    <title>商店</title>
    <desc>Created with Sketch.</desc>
    <g id="Page-1" stroke="none" stroke-width="1" fill="none" fill-rule="evenodd">
        <g id="DC首页" transform="translate(-146.000000, -675.000000)" fill-rule="nonzero">
            <g id="商店" transform="translate(145.000000, 674.000000)">
                <rect id="Rectangle" fill="#000000" opacity="0" x="0" y="0" width="23" height="23"></rect>
                <path d="M18.9781178,12.7491341 C18.5906236,12.7491341 18.2766334,13.0631012 18.2766334,13.4506185 L18.2766334,18.5388397 C18.2766334,19.4154653 17.6735683,20.1559772 16.9597643,20.1559772 L6.06082975,20.1559772 C5.34702571,20.1559772 4.74396059,19.4154423 4.74396059,18.5388397 L4.74396059,13.4506185 C4.74396059,13.0631242 4.42987855,12.7491341 4.0424762,12.7491341 C3.65507386,12.7491341 3.34099181,13.0631012 3.34099181,13.4506185 L3.34099181,18.5388397 C3.34099181,20.2041756 4.56116553,21.558946 6.06080677,21.558946 L16.9597413,21.558946 C18.4595205,21.558946 19.6795563,20.2041756 19.6795563,18.5388397 L19.6795563,13.4506185 C19.6796022,13.0631012 19.3656121,12.7491341 18.9781178,12.7491341 Z M17.3559467,6.1446999 L5.66464736,6.1446999 C5.277268,6.1446999 4.96316297,6.45866704 4.96316297,6.84618429 C4.96316297,7.23370154 5.27724502,7.54766868 5.66464736,7.54766868 L17.3559466,7.54766868 C17.7434409,7.54766868 18.057431,7.23370154 18.057431,6.84618429 C18.057431,6.45866704 17.7434409,6.1446999 17.3559467,6.1446999 Z M21.3429385,6.36960241 C21.3427087,6.36891288 21.3424788,6.36822336 21.3420191,6.36732696 L21.3093583,6.27826234 C21.2837766,6.20838971 21.2479439,6.14490674 21.2047792,6.08919252 L19.6899452,3.15357688 C19.1535579,2.05613994 18.2285271,1.45056953 17.082685,1.44806421 L5.9855328,1.44806421 C4.75326928,1.44806421 4.01445818,1.93308136 3.43582551,3.12229508 L3.44005463,3.12434069 C3.37188286,3.23599899 3.29231081,3.38100766 3.18865109,3.56961779 C3.03040339,3.85802624 2.81896973,4.24347491 2.60613404,4.63301482 C1.73100237,6.23440808 1.70930508,6.29354698 1.68395329,6.36250022 C1.45560311,6.98473434 1.45560311,7.34529089 1.45560311,7.76363026 C1.45721201,9.38442236 2.34020436,10.8656991 3.76234213,11.6382053 C3.77284601,11.6443651 3.78357974,11.6505249 3.7945433,11.6564779 C4.39553982,11.9768577 5.09359954,12.1394265 5.87157607,12.1394265 C6.91865415,12.1362316 7.91629276,11.7656309 8.70123357,11.1043463 C9.48183032,11.7583218 10.4744583,12.1264173 11.5230074,12.132807 C12.5573062,12.1245785 13.5432917,11.7555867 14.3203488,11.1015881 C15.1067606,11.7624131 16.107617,12.1307383 17.1611997,12.1307383 C17.952875,12.1266241 18.6618982,11.9560568 19.2676985,11.6240469 C20.6852624,10.8492652 21.5655426,9.36410412 21.5646232,7.7517703 C21.5664849,7.34099281 21.5683007,6.98613639 21.3429385,6.36960241 Z M20.1617004,7.74905814 C20.16216,8.85127584 19.5618301,9.8644519 18.5941172,10.3933004 C18.1945101,10.6125027 17.7099527,10.7250804 17.1575912,10.7278155 C16.2647615,10.7278155 15.426267,10.339172 14.857012,9.66143056 C14.7238862,9.50272317 14.5272775,9.41115325 14.3199351,9.41115325 L14.3197053,9.41115325 C14.1123628,9.41115325 13.9157541,9.50295301 13.7823986,9.66186727 C13.2189586,10.3336558 12.3913127,10.7229888 11.5217663,10.7298382 C10.6354412,10.7243679 9.80243997,10.3359313 9.23658662,9.66414274 C9.10334596,9.50589504 8.90696711,9.41455496 8.70008438,9.41455496 C8.69985453,9.41455496 8.69962469,9.41455496 8.69950976,9.41455496 C8.49239718,9.4147848 8.2959034,9.50635472 8.16277767,9.66503913 C7.59361457,10.3432173 6.75684389,10.7336996 5.8693926,10.7364347 C5.33769409,10.7364347 4.87026002,10.6339012 4.4795709,10.4315924 C4.47067594,10.426352 4.46175798,10.4213184 4.45263316,10.4162848 C3.47039413,9.89267678 2.85969817,8.87563936 2.85854896,7.76291777 C2.85854896,7.40783153 2.85854896,7.24160822 2.99167471,6.87146717 C3.14969257,6.55338584 4.5875747,3.93562169 4.67686914,3.77486867 C4.68406327,3.76231918 4.69079771,3.74928701 4.69718738,3.73604799 C5.0657425,2.97884938 5.34215308,2.85098706 5.98550989,2.85098706 L17.0810531,2.85098706 C17.6886921,2.85236611 18.1305216,3.15445031 18.4319392,3.77486867 C18.4344445,3.77990225 18.4369728,3.78491286 18.4394781,3.78994645 L20.0392624,6.89019948 C20.1639758,7.24257354 20.1632863,7.4047056 20.1617004,7.74905814 Z M8.77283003,13.1811722 C8.38545067,13.1811722 8.07134564,13.4951393 8.07134564,13.8826566 L8.07134564,14.5670176 C8.07134564,14.9545118 8.38542769,15.268502 8.77283003,15.268502 C9.16020939,15.268502 9.47431442,14.9545348 9.47431442,14.5670176 L9.47431442,13.8826566 C9.47431442,13.4951393 9.16023237,13.1811722 8.77283003,13.1811722 Z M14.247764,13.1811722 C13.8602697,13.1811722 13.5462796,13.4951393 13.5462796,13.8826566 L13.5462796,14.5670176 C13.5462796,14.9545118 13.8602468,15.268502 14.247764,15.268502 C14.6352583,15.268502 14.9492484,14.9545348 14.9492484,14.5670176 L14.9492484,13.8826566 C14.9492484,13.4951393 14.6352583,13.1811722 14.247764,13.1811722 Z M13.2402651,16.3581472 C12.9197934,16.1469204 12.4862613,16.2364447 12.2709433,16.5547559 C12.2679783,16.5590999 11.9651816,16.9984241 11.5033557,16.9984241 C11.0543092,16.9984241 10.7750485,16.5917378 10.7562013,16.563421 C10.550123,16.2393867 10.1208201,16.1409904 9.79418854,16.3442186 C9.46502871,16.5485961 9.36398921,16.9810708 9.56845858,17.3101158 C9.8202069,17.715423 10.5111874,18.4013699 11.5033557,18.4013699 C12.4907203,18.4013699 13.1901361,17.7206634 13.4478374,17.3183212 C13.654927,16.9949994 13.5608517,16.5691211 13.2402651,16.3581472 Z" id="Shape" fill="#787878"></path>
            </g>
        </g>
    </g>
</svg>