<?xml version="1.0" standalone="no"?><!DOCTYPE svg PUBLIC "-//W3C//DTD SVG 1.1//EN" "http://www.w3.org/Graphics/SVG/1.1/DTD/svg11.dtd"><svg t="1594662958995" class="icon" viewBox="0 0 1024 1024" version="1.1" xmlns="http://www.w3.org/2000/svg" p-id="1199" width="128" height="128" xmlns:xlink="http://www.w3.org/1999/xlink"><defs><style type="text/css"></style></defs><path d="M756.717636 533.814141c114.072916 0 213.758717 101.503391 213.758717 218.008292 0 116.274502-99.634602 217.854693-213.758717 217.854693-114.175315 0-213.758717-101.580191-213.758718-217.854693 0-116.479301 99.583402-218.008292 213.758718-218.008292z m0-54.092475c-150.168699 0-266.827199 118.936886-266.827199 272.126367 0 153.087081 116.6585 272.126367 266.827199 272.126367 150.219899 0 266.878399-119.039286 266.878398-272.126367 0-153.240681-116.6585-272.126367-266.878398-272.126367z" fill="#1B7AFF" p-id="1200"></path><path d="M411.503707 989.542607H143.806113c-75.00755 0-133.835997-56.934058-133.835997-133.4264V146.693264a136.447181 136.447181 0 0 1 38.783768-96.946618A131.199213 131.199213 0 0 1 143.806113 10.143683H732.67938c75.00755 0 130.687216 60.05724 130.687216 136.523981v163.711018c0 16.358302-7.526355 27.366236-23.679858 27.366236-15.974304-0.0512-23.551859-11.007934-23.551859-27.391836V146.693264c0-43.775737-40.626956-88.37067-83.455499-88.37067H143.806113c-42.879743 0-86.60428 44.594932-86.60428 88.37067v709.448543c0 43.775737 43.724538 85.119489 86.60428 85.119489h267.697594c16.025504 0 26.777439 7.628754 26.777439 24.115056 0 16.409502-10.751935 24.191855-26.777439 24.191855z" fill="#1B7AFF" p-id="1201"></path><path d="M411.503707 999.680146H143.806113C61.861005 999.680146 0.011776 937.907717 0.011776 856.116207V146.693264a146.507921 146.507921 0 0 1 41.65095-104.191375A140.850355 140.850355 0 0 1 143.806113 0.006144H732.67938c80.178719 0 140.619956 63.052422 140.619956 146.66152v163.711018c0 23.091061-12.851123 37.478175-33.612598 37.478175-20.633476 0-33.510199-14.387114-33.510199-37.478175V146.667664c0-38.732568-37.042978-78.233131-73.471559-78.233131H143.780513c-37.196577 0-76.67154 40.242959-76.67154 78.233131v709.448543c0 37.196577 38.732568 75.00755 76.67154 75.00755h267.697594c22.655864 0 36.71018 13.132721 36.71018 34.226995 0 21.119873-14.079916 34.303794-36.71018 34.303794zM143.806113 20.281222a121.420071 121.420071 0 0 0-88.012272 36.607781A126.284042 126.284042 0 0 0 19.902857 146.693264v709.448543c0 70.297178 53.27328 123.186461 123.903256 123.186461h267.697594c16.844699 0 16.844699-9.727942 16.844699-13.900717 0-4.198375 0-14.028716-16.844699-14.028715H143.806113c-49.663702 0-96.537021-46.258922-96.537021-95.205829V146.667664c0-49.740502 47.794913-98.482609 96.511421-98.482609h588.924467c47.103717 0 93.38824 48.742108 93.38824 98.482609v163.711018c0 17.228697 9.548743 17.228697 13.619118 17.228696 4.147175 0 13.747118 0 13.747117-17.228696V146.667664c0-72.063568-51.890889-126.386442-120.754475-126.386442H143.806113z" fill="#1B7AFF" p-id="1202"></path><path d="M625.620822 279.889265H250.890271c-16.076704 0-25.267048-7.782353-25.267049-24.038256 0-16.383902 9.139145-24.140655 25.215849-24.140655h374.756151c16.076704 0 25.190249 7.756753 25.190249 24.140655 0.0512 16.255902-9.062346 24.038256-25.190249 24.038256z m-48.025312 163.711017H250.915871c-16.076704 0-25.267048-7.731154-25.267049-24.115055 0-16.255902 9.139145-24.063856 25.215849-24.063856h326.730839c16.076704 0 25.215849 7.807953 25.215849 24.063856 0.0512 16.383902-9.087945 24.115055-25.215849 24.115055z" fill="#1B7AFF" p-id="1203"></path><path d="M577.59551 453.789021H250.915871c-22.015868 0-35.148589-12.799923-35.14859-34.252594 0-21.401472 13.158321-34.175795 35.14859-34.175795h326.730839c21.990268 0 35.148589 12.825523 35.148589 34.175795 0.0512 10.419137-2.943982 18.739088-8.883146 24.806251-6.143963 6.220763-15.02711 9.446343-26.316643 9.446343z" fill="#1B7AFF" p-id="1204"></path><path d="M250.890271 405.58451c-12.697524 0-15.257508 5.273568-15.257509 13.900717 0 8.601548 2.508785 13.977516 15.283109 13.977516h326.730839c3.993576 0 9.369544-0.665596 12.236727-3.455979 2.047988-2.047988 3.020782-5.580767 2.995182-10.444737 0-8.703948-2.508785-13.977516-15.231909-13.977517H250.915871z m182.680504 239.281765H250.915871c-22.015868 0-35.148589-12.774323-35.14859-34.252595 0-21.401472 13.158321-34.175795 35.14859-34.175795h182.706103c22.015868 0 35.148589 12.825523 35.148589 34.175795 0.0512 10.419137-2.918382 18.739088-8.883146 24.831851-6.143963 6.195163-15.02711 9.420743-26.316642 9.420744z m192.050047-354.839471H250.890271c-22.015868 0-35.148589-12.825523-35.148589-34.175795 0-21.503871 13.158321-34.252594 35.148589-34.252595h374.730551c22.015868 0 35.148589 12.774323 35.148589 34.252595 0.0512 10.419137-2.918382 18.636688-8.883146 24.729452-6.143963 6.246363-15.02711 9.446343-26.291043 9.446343z" fill="#1B7AFF" p-id="1205" data-spm-anchor-id="a313x.7781069.0.i2" class="selected"></path><path d="M250.890271 241.924692c-12.697524 0-15.257508 5.222369-15.257509 13.875117 0 8.627148 2.559985 13.900717 15.283109 13.900717h374.730551c3.993576 0 9.369544-0.588796 12.262327-3.481579 1.996788-2.099187 3.020782-5.580767 2.969582-10.419138 0-8.652748-2.508785-13.900717-15.231909-13.900716H250.915871z m416.151103 395.850425h71.346772c-5.478367-11.110333-3.071982-18.35509 7.091157-21.759869 12.927922-5.555167 22.425465 1.68959 28.569429 21.759869h73.34356c15.667106 0 23.449459 7.244757 23.449459 21.836669 0 11.110333-1.023994 20.07028-3.046382 27.007838-2.713584 11.775929-8.473549 17.331096-17.305496 16.6399a24.217455 24.217455 0 0 1 3.020782 12.492725v97.637815c0 14.591912-7.833553 21.836669-23.423859 21.836669h-59.058846v17.612694c-0.665596 7.628754-5.759965 11.775929-15.257509 12.467125-10.188739 0-15.283108-3.814377-15.283108-11.391931v-18.687888h-59.084445c-16.332702 0-24.115055-6.963158-23.42386-20.812675v-108.056952c-11.571131 1.356792-16.998298-3.788777-16.332702-15.564707v-28.057431c-0.767995-16.6399 7.731154-24.95985 25.395048-24.959851z m168.190991 29.107026h-161.023034c-2.047988 0.691196-3.071982 1.71519-3.071982 3.097581v18.687888h69.298784v-6.220763c0-7.577555 5.119969-11.72473 15.283109-12.467125 9.497543 0.742396 14.591912 4.889571 15.257508 12.467125v6.220763h65.254009c1.971188-5.350368 3.32798-10.905535 4.070375-16.5887a6.60476 6.60476 0 0 0-5.094369-5.196769z m-146.78952 77.925932h51.993288v-25.932644h-48.895706c-2.047988 0.691196-3.071982 1.71519-3.071982 3.071981v22.860663z m3.071982 60.262039h48.921306V773.889501h-51.967688v28.057431c0 2.150387 0.998394 3.123181 3.071982 3.123182z m130.456817-60.262039v-22.860663a6.65596 6.65596 0 0 0-3.046381-3.071981h-47.897313v25.932644h50.943694z m-50.943694 29.132625v31.180613h48.895707c2.047988 0 3.071982-1.023994 3.071981-3.071981v-28.057432h-51.967688v-0.0512z" fill="#1B7AFF" p-id="1206"></path></svg>