<?xml version="1.0" encoding="UTF-8"?>
<svg width="30px" height="29px" viewBox="0 0 30 29" version="1.1" xmlns="http://www.w3.org/2000/svg" xmlns:xlink="http://www.w3.org/1999/xlink">
    <!-- Generator: Sketch 53.2 (72643) - https://sketchapp.com -->
    <title>Group 12</title>
    <desc>Created with Sketch.</desc>
    <g id="Page-1" stroke="none" stroke-width="1" fill="none" fill-rule="evenodd">
        <g id="DC罗盘" transform="translate(-178.000000, -257.000000)" fill-rule="nonzero">
            <g id="Group-12" transform="translate(177.000000, 256.000000)">
                <g id="64-金币">
                    <rect id="Rectangle" fill="#000000" opacity="0" x="0" y="0" width="30" height="30"></rect>
                    <path d="M1.85449219,14.5400391 C1.85449209,19.22915 4.35610293,23.5620672 8.41699211,25.9066227 C12.4778813,28.2511782 17.4811031,28.2511782 21.5419923,25.9066227 C25.6028814,23.5620672 28.1044923,19.22915 28.1044922,14.5400391 C28.1044922,7.29130172 22.2282295,1.41503906 14.9794922,1.41503906 C7.73075485,1.41503906 1.85449219,7.29130172 1.85449219,14.5400391 L1.85449219,14.5400391 Z" id="Path" fill="#FFD96B"></path>
                    <path d="M24.2636719,5.26464844 L5.70410156,23.8271484 C10.8310547,28.9482422 19.1367188,28.9482422 24.2607422,23.8242187 C29.3847656,18.6972656 29.3876953,10.3916016 24.2636719,5.26464844 Z" id="Path" fill="#FDC223"></path>
                    <path d="M5.4375,14.5400391 C5.4375,19.8099358 9.70959542,24.0820312 14.9794922,24.0820312 C20.249389,24.0820312 24.5214844,19.8099358 24.5214844,14.5400391 C24.5214844,9.27014229 20.249389,4.99804688 14.9794922,4.99804688 C9.70959542,4.99804688 5.4375,9.27014229 5.4375,14.5400391 Z" id="Path" fill="#F9AB10"></path>
                    <path d="M21.5214844,7.60839844 C17.7832031,4.078125 11.8945312,4.13378906 8.23242188,7.79296875 C4.57324219,11.4550781 4.51757812,17.34375 8.04785156,21.0820312 L21.5214844,7.60839844 Z" id="Path" fill="#F9B721"></path>
                    <path d="M14.1591797,17.2382812 L11.8095703,17.2382812 L11.8095703,15.8378906 L14.1591797,15.8378906 L14.1591797,15.0791016 L11.8095703,15.0791016 L11.8095703,13.6787109 L13.4619141,13.6787109 L11.4931641,9.68261719 L13.4443359,9.68261719 L14.7099609,12.3808594 C14.8710937,12.7177734 14.9853516,13.0166016 15.0527344,13.2744141 C15.1318359,12.9960938 15.2460937,12.6972656 15.3955078,12.3808594 L16.6875,9.68261719 L18.6386719,9.68261719 L16.6435547,13.6787109 L18.3222656,13.6787109 L18.3222656,15.0791016 L15.9404297,15.0791016 L15.9404297,15.8378906 L18.3222656,15.8378906 L18.3222656,17.2382812 L15.9404297,17.2382812 L15.9404297,20.203125 L14.1621094,20.203125 L14.1621094,17.2382812 L14.1591797,17.2382812 Z" id="Path" fill="#D3830D"></path>
                    <polygon id="Path" fill="#BF790A" points="16.7578125 13.4472656 12.9667969 17.2382812 14.1591797 17.2382812 14.1591797 20.203125 15.9404297 20.203125 15.9404297 17.2382812 18.3222656 17.2382812 18.3222656 15.8378906 15.9404297 15.8378906 15.9404297 15.0791016 18.3222656 15.0791016 18.3222656 13.6787109 16.6435547 13.6787109"></polygon>
                </g>
                <g id="64-金币" transform="translate(16.000000, 15.000000)">
                    <rect id="Rectangle" fill="#000000" opacity="0" x="0" y="0" width="16" height="16"></rect>
                    <path d="M0.9890625,7.7546875 C0.989062447,10.2555467 2.3232549,12.5664359 4.48906246,13.8168654 C6.65487002,15.067295 9.32325498,15.067295 11.4890625,13.8168654 C13.6548701,12.5664359 14.9890626,10.2555467 14.9890625,7.7546875 C14.9890625,3.88869425 11.8550557,0.7546875 7.9890625,0.7546875 C4.12306925,0.7546875 0.9890625,3.88869425 0.9890625,7.7546875 L0.9890625,7.7546875 Z" id="Path" fill="#FFD96B"></path>
                    <path d="M12.940625,2.8078125 L3.0421875,12.7078125 C5.7765625,15.4390625 10.20625,15.4390625 12.9390625,12.70625 C15.671875,9.971875 15.6734375,5.5421875 12.940625,2.8078125 Z" id="Path" fill="#FDC223"></path>
                    <path d="M2.9,7.7546875 C2.9,10.5652991 5.17845089,12.84375 7.9890625,12.84375 C10.7996741,12.84375 13.078125,10.5652991 13.078125,7.7546875 C13.078125,4.94407589 10.7996741,2.665625 7.9890625,2.665625 C5.17845089,2.665625 2.9,4.94407589 2.9,7.7546875 Z" id="Path" fill="#F9AB10"></path>
                    <path d="M11.478125,4.0578125 C9.484375,2.175 6.34375,2.2046875 4.390625,4.15625 C2.4390625,6.109375 2.409375,9.25 4.2921875,11.24375 L11.478125,4.0578125 Z" id="Path" fill="#F9B721"></path>
                    <path d="M7.5515625,9.19375 L6.2984375,9.19375 L6.2984375,8.446875 L7.5515625,8.446875 L7.5515625,8.0421875 L6.2984375,8.0421875 L6.2984375,7.2953125 L7.1796875,7.2953125 L6.1296875,5.1640625 L7.1703125,5.1640625 L7.8453125,6.603125 C7.93125,6.7828125 7.9921875,6.9421875 8.028125,7.0796875 C8.0703125,6.93125 8.13125,6.771875 8.2109375,6.603125 L8.9,5.1640625 L9.940625,5.1640625 L8.8765625,7.2953125 L9.771875,7.2953125 L9.771875,8.0421875 L8.5015625,8.0421875 L8.5015625,8.446875 L9.771875,8.446875 L9.771875,9.19375 L8.5015625,9.19375 L8.5015625,10.775 L7.553125,10.775 L7.553125,9.19375 L7.5515625,9.19375 Z" id="Path" fill="#D3830D"></path>
                    <polygon id="Path" fill="#BF790A" points="8.9375 7.171875 6.915625 9.19375 7.5515625 9.19375 7.5515625 10.775 8.5015625 10.775 8.5015625 9.19375 9.771875 9.19375 9.771875 8.446875 8.5015625 8.446875 8.5015625 8.0421875 9.771875 8.0421875 9.771875 7.2953125 8.8765625 7.2953125"></polygon>
                </g>
            </g>
        </g>
    </g>
</svg>