<?xml version="1.0" standalone="no"?><!DOCTYPE svg PUBLIC "-//W3C//DTD SVG 1.1//EN" "http://www.w3.org/Graphics/SVG/1.1/DTD/svg11.dtd"><svg t="1559146354415" class="icon" style="" viewBox="0 0 1024 1024" version="1.1" xmlns="http://www.w3.org/2000/svg" p-id="3000" xmlns:xlink="http://www.w3.org/1999/xlink" width="32" height="32"><defs><style type="text/css"></style></defs><path d="M610.12739 197.309808c-10.393721 0-193.078437 0-200.254883 0-9.31004 0-16.236799-9.573029-10.790764-19.032472 4.370541-7.578606 92.403526-159.039179 99.920734-171.962513 4.955872-8.493441 16.752546-8.345062 21.696138 0 5.5279 9.30083 94.019327 161.344688 100.161211 172.353416C625.380792 186.726775 620.392174 197.309808 610.12739 197.309808z" p-id="3001" fill="#FC7028"></path><path d="M620.860848 845.328691c-6.141884 11.006681-94.633311 163.049516-100.161211 172.35137-4.943592 8.346085-16.740266 8.493441-21.696138 0-7.517207-12.923334-95.551216-164.383908-99.920734-171.962513-5.446036-9.459442 1.480724-19.031449 10.790764-19.031449 7.176446 0 189.861162 0 200.254883 0C620.392174 826.687122 625.380792 837.269132 620.860848 845.328691z" p-id="3002" fill="#FC7028"></path><path d="M722.632743 249.217015l-112.553449 0-79.452563 146.394185c-7.575536 14.182001-14.016225 26.529213-19.36607 37.124526-19.039635-37.681204-49.601698-94.924953-92.397387-173.08815l-5.711072-10.43056L297.052998 249.217015 425.934321 470.604194l-90.840938 0 0 89.056292 123.864052 0 0 27.281343L335.093383 586.941829l0 89.684602 123.864052 0 0 98.150414 101.601003 0 0-98.150414 119.472022 0 0-89.684602L560.558437 586.941829l0-27.281343 119.472022 0 0-89.056292L592.49787 470.604194 722.632743 249.217015z" p-id="3003" fill="#FC7028"></path><path d="M339.72282 840.096527C221.406111 778.426979 140.609946 654.657071 140.609946 511.998977c0-142.657071 80.796164-266.429025 199.113897-328.09755L339.723843 90.004897C172.942329 157.520593 55.279512 321.006038 55.279512 511.99693S172.942329 866.475314 339.72282 933.988963L339.72282 840.096527z" p-id="3004" fill="#FC7028"></path><path d="M681.054789 90.004897l0 93.897553c118.315686 61.671595 199.107757 185.439456 199.107757 328.096527 0 142.659117-80.792071 266.423909-199.107757 328.09755l0 93.892437c166.778444-67.51672 284.442284-231.001141 284.442284-421.992033C965.497073 321.007061 847.833233 157.52264 681.054789 90.004897z" p-id="3005" fill="#FC7028"></path></svg>