<?xml version="1.0" encoding="UTF-8"?>
<svg width="18px" height="20px" viewBox="0 0 18 20" version="1.1" xmlns="http://www.w3.org/2000/svg" xmlns:xlink="http://www.w3.org/1999/xlink">
    <!-- Generator: Sketch 53.2 (72643) - https://sketchapp.com -->
    <title>我的</title>
    <desc>Created with Sketch.</desc>
    <g id="Page-1" stroke="none" stroke-width="1" fill="none" fill-rule="evenodd">
        <g id="DC首页" transform="translate(-293.000000, -688.000000)" fill-rule="nonzero">
            <g id="Group-24" transform="translate(0.000000, 670.000000)">
                <g id="Group-23" transform="translate(290.000000, 16.000000)">
                    <g id="我的">
                        <rect id="Rectangle" fill="#000000" opacity="0" x="0" y="0" width="24" height="24"></rect>
                        <path d="M3.74937007,21.750378 C3.49941206,21.750378 3.25751723,21.625399 3.11238033,21.3996304 C2.89064339,21.0488829 2.99546449,20.5852511 3.346212,20.3635142 C3.47522259,20.2828826 6.54728709,18.3598186 8.98639343,18.2388712 L8.99848816,18.2388712 L8.99848816,17.8195868 C6.17638167,16.6504284 4.31782296,13.7033429 4.31782296,10.3087519 C4.31782296,5.86594995 7.73660341,2.24962205 11.9415421,2.24962205 C16.1464808,2.24962205 19.5652612,5.86191837 19.5652612,10.3087519 C19.5652612,13.6993113 17.7873341,16.5697968 14.9934487,17.7712078 L14.9934487,18.2469343 C17.4486814,18.4686713 20.4965564,20.278851 20.6295986,20.3554511 C20.9843777,20.5691248 21.1012935,21.028725 20.8876197,21.3835041 C20.6739459,21.7382832 20.2143458,21.8551991 19.8595666,21.6415253 C19.8313456,21.625399 16.9003864,19.8877877 14.8402486,19.7345876 L14.2435747,19.7345876 C13.8283219,19.7345876 13.4937007,19.3999664 13.4937007,18.9847136 L13.4937007,17.2511339 C13.4937007,16.932639 13.6952797,16.6463968 14.0016799,16.5415757 C16.4730388,15.6909122 18.0655132,13.2437427 18.0655132,10.3006887 C18.0695448,6.69242398 15.3240383,3.74937007 11.9455737,3.74937007 C8.56710902,3.74937007 5.82160256,6.692424 5.82160256,10.3087519 C5.82160256,13.2558374 7.49470856,15.7755754 9.98219386,16.5818915 C10.2926256,16.682681 10.5022678,16.9689232 10.5022678,17.2954813 L10.5022678,18.9887452 C10.5022678,19.403998 10.1676466,19.7386192 9.75239374,19.7386192 L9.02670921,19.7386192 C7.01495044,19.8394087 4.18074919,21.6133042 4.15252812,21.6334621 C4.02754913,21.7100621 3.88644382,21.750378 3.74937007,21.750378 Z" id="Path" fill="#FF3735"></path>
                    </g>
                </g>
            </g>
        </g>
    </g>
</svg>