<?xml version="1.0" encoding="UTF-8"?>
<svg width="14px" height="14px" viewBox="0 0 14 14" version="1.1" xmlns="http://www.w3.org/2000/svg" xmlns:xlink="http://www.w3.org/1999/xlink">
    <!-- Generator: Sketch 53.2 (72643) - https://sketchapp.com -->
    <title>Shape</title>
    <desc>Created with Sketch.</desc>
    <g id="Page-1" stroke="none" stroke-width="1" fill="none" fill-rule="evenodd">
        <g id="DC首页" transform="translate(-226.000000, -250.000000)" fill="#FF3735" fill-rule="nonzero">
            <g id="钱" transform="translate(225.000000, 249.000000)">
                <path d="M8.015625,14.965625 C7.075,14.965625 6.1625,14.78125 5.303125,14.4171875 C4.4734375,14.065625 3.728125,13.5640625 3.0875,12.9234375 C2.446875,12.2828125 1.9453125,11.5390625 1.59375,10.7078125 C1.23125,9.85 1.046875,8.9375 1.046875,7.996875 C1.046875,6.2046875 1.725,4.503125 2.9578125,3.203125 C3.10625,3.046875 3.353125,3.040625 3.509375,3.1890625 C3.665625,3.3375 3.671875,3.584375 3.5234375,3.740625 C2.43125,4.8953125 1.828125,6.40625 1.828125,7.996875 C1.828125,11.409375 4.603125,14.184375 8.015625,14.184375 C11.428125,14.184375 14.203125,11.409375 14.203125,7.996875 C14.203125,4.584375 11.428125,1.809375 8.015625,1.809375 C7.0734375,1.809375 6.16875,2.015625 5.3265625,2.421875 C5.1328125,2.515625 4.8984375,2.434375 4.8046875,2.240625 C4.7109375,2.046875 4.7921875,1.8125 4.9859375,1.71875 C5.9359375,1.2609375 6.9546875,1.028125 8.015625,1.028125 C8.95625,1.028125 9.86875,1.2125 10.728125,1.5765625 C11.5578125,1.928125 12.303125,2.4296875 12.94375,3.0703125 C13.584375,3.7109375 14.0859375,4.4546875 14.4375,5.2859375 C14.8015625,6.1453125 14.9859375,7.0578125 14.9859375,7.9984375 C14.9859375,8.9390625 14.8015625,9.8515625 14.4375,10.7109375 C14.0859375,11.540625 13.584375,12.2859375 12.94375,12.9265625 C12.303125,13.5671875 11.559375,14.06875 10.728125,14.4203125 C9.86875,14.78125 8.95625,14.965625 8.015625,14.965625 Z M8.015625,7.9890625 C7.915625,7.9890625 7.815625,7.9515625 7.7390625,7.875 L5.5171875,5.653125 C5.3640625,5.5 5.3640625,5.253125 5.5171875,5.1 C5.6703125,4.946875 5.9171875,4.946875 6.0703125,5.1 L8.015625,7.046875 L9.9609375,5.1015625 C10.1140625,4.9484375 10.3609375,4.9484375 10.5140625,5.1015625 C10.6671875,5.2546875 10.6671875,5.5015625 10.5140625,5.6546875 L8.2921875,7.875 C8.215625,7.9515625 8.115625,7.9890625 8.015625,7.9890625 Z M9.9109375,7.9890625 L6.1203125,7.9890625 C5.9046875,7.9890625 5.7296875,7.8140625 5.7296875,7.5984375 C5.7296875,7.3828125 5.9046875,7.2078125 6.1203125,7.2078125 L9.9109375,7.2078125 C10.1265625,7.2078125 10.3015625,7.3828125 10.3015625,7.5984375 C10.3015625,7.8140625 10.1265625,7.9890625 9.9109375,7.9890625 Z M9.9109375,9.803125 L6.1203125,9.803125 C5.9046875,9.803125 5.7296875,9.628125 5.7296875,9.4125 C5.7296875,9.196875 5.9046875,9.021875 6.1203125,9.021875 L9.9109375,9.021875 C10.1265625,9.021875 10.3015625,9.196875 10.3015625,9.4125 C10.3015625,9.628125 10.1265625,9.803125 9.9109375,9.803125 Z M8.015625,11.8921875 C7.8,11.8921875 7.625,11.7171875 7.625,11.5015625 L7.625,7.5984375 C7.625,7.3828125 7.8,7.2078125 8.015625,7.2078125 C8.23125,7.2078125 8.40625,7.3828125 8.40625,7.5984375 L8.40625,11.5015625 C8.40625,11.7171875 8.23125,11.8921875 8.015625,11.8921875 Z" id="Shape"></path>
            </g>
        </g>
    </g>
</svg>