<?xml version="1.0" encoding="UTF-8"?>
<svg width="36px" height="36px" viewBox="0 0 36 36" version="1.1" xmlns="http://www.w3.org/2000/svg" xmlns:xlink="http://www.w3.org/1999/xlink">
    <!-- Generator: Sketch 53.2 (72643) - https://sketchapp.com -->
    <title>图片</title>
    <desc>Created with Sketch.</desc>
    <g id="Page-1" stroke="none" stroke-width="1" fill="none" fill-rule="evenodd">
        <g id="DC罗盘" transform="translate(-217.000000, -254.000000)" fill-rule="nonzero">
            <g id="图片" transform="translate(215.000000, 252.000000)">
                <rect id="Rectangle" fill="#000000" opacity="0" x="0" y="0" width="40" height="40"></rect>
                <path d="M5,33.4 C5,32.6 5.4,32 6,31.6 L14.8,26.6 C15.8,26 17,26 18,26.6 L22.2,29.4 C24,30.6 26.2,30.4 28,29.2 L38,21.6 L38,34 C38,35.2 35.2,38 34,38 L8,38 C6.8,38 5,37.2 5,36 L5,33.4 Z" id="Path" fill="#5AC8FA"></path>
                <path d="M4,28.2 L14,22.6 C15.6,21.8 17.6,21.8 19.2,22.8 L23.4,25.6 C24.4,26.2 25.8,26.2 26.8,25.4 L36,18.4 L36,6 C36,4.8 35.2,4 34,4 L6,4 C4.8,4 4,4.8 4,6 L4,28.2 Z M4,30.6 L4,34 C4,35.2 4.8,36 6,36 L34,36 C35.2,36 36,35.2 36,34 L36,20.8 L28,27 C26.4,28.2 24,28.4 22.2,27.2 L18,24.6 C17,24 15.8,24 15,24.6 L4,30.6 L4,30.6 Z M6,2 L34,2 C36.2,2 38,3.8 38,6 L38,34 C38,36.2 36.2,38 34,38 L6,38 C3.8,38 2,36.2 2,34 L2,6 C2,3.8 3.8,2 6,2 Z M12,17 C9.2,17 7,14.8 7,12 C7,9.2 9.2,7 12,7 C14.8,7 17,9.2 17,12 C17,14.8 14.8,17 12,17 Z M12,15 C13.6,15 15,13.6 15,12 C15,10.4 13.6,9 12,9 C10.4,9 9,10.4 9,12 C9,13.6 10.4,15 12,15 Z" id="Shape" fill="#7C7C7C"></path>
            </g>
        </g>
    </g>
</svg>