<?xml version="1.0" encoding="UTF-8"?>
<svg width="23px" height="20px" viewBox="0 0 23 20" version="1.1" xmlns="http://www.w3.org/2000/svg" xmlns:xlink="http://www.w3.org/1999/xlink">
    <!-- Generator: Sketch 53.2 (72643) - https://sketchapp.com -->
    <title>首页</title>
    <desc>Created with Sketch.</desc>
    <g id="Page-1" stroke="none" stroke-width="1" fill="none" fill-rule="evenodd">
        <g id="DC首页" transform="translate(-25.000000, -688.000000)" fill-rule="nonzero">
            <g id="Group-24" transform="translate(0.000000, 670.000000)">
                <g id="Group-20" transform="translate(23.000000, 15.000000)">
                    <g id="首页">
                        <rect id="Rectangle" fill="#000000" opacity="0" x="0" y="0" width="26" height="26"></rect>
                        <path d="M15.2705068,23 L8.53728955,23 C6.38125929,23 4.62732565,21.2552003 4.62732565,19.1103979 L4.62732565,14.1215542 L2.90233306,14.1215542 C2.52728319,14.1215542 2.191409,13.8908911 2.05849059,13.5420045 C1.92573004,13.1931178 2.02368238,12.7987947 2.30448962,12.5516427 L12.9022859,3.22527138 C13.2435799,2.92490954 13.7564156,2.92490954 14.0977096,3.22527138 L24.695348,12.5516427 C24.976471,12.7988209 25.0742392,13.1931178 24.9414786,13.5420045 C24.8084286,13.890865 24.472686,14.1215542 24.0976098,14.1215542 L22.3726436,14.1215542 L22.3726436,19.1103717 C22.3726436,20.4555876 21.6888189,21.6867676 20.5433316,22.4039351 C20.1215814,22.6684922 19.5649658,22.5418671 19.2991553,22.1223917 C19.0336342,21.7028378 19.1605013,21.1487021 19.5823041,20.8845376 C20.1994065,20.4980926 20.5680367,19.8348677 20.5680367,19.1103717 L20.5680368,13.2239235 C20.5680368,12.7282584 20.9719488,12.3263451 21.4703402,12.3263451 L21.7158656,12.3263451 L13.4999715,5.0959896 L5.28407729,12.3263451 L5.52962906,12.3263451 C6.02788893,12.3263451 6.43190617,12.7282322 6.43190617,13.2239235 L6.43190617,19.1103717 C6.43190617,20.2652311 7.37651614,21.2047648 8.53726324,21.2047648 L15.2704541,21.2047648 C15.7688719,21.2047648 16.1727575,21.6066519 16.1727575,22.1023955 C16.1727839,22.5980867 15.7689245,23 15.2705068,23 Z M15.2572991,23 C14.7588551,23 14.355022,22.5981129 14.355022,22.1024217 C14.355022,21.6067042 14.7588551,21.204791 15.2572991,21.204791 C15.5889111,21.204791 15.8588259,20.9364126 15.8588259,20.6063705 L15.8588259,16.2662518 C15.8588259,15.9362097 15.5888848,15.6678314 15.2572991,15.6678314 L11.7426701,15.6678314 C11.4110582,15.6678314 11.141117,15.9362097 11.141117,16.2662518 L11.141117,19.0584182 C11.141117,19.5540833 10.7372839,19.9559966 10.2388399,19.9559966 C9.74039584,19.9559966 9.33653647,19.5541095 9.33653647,19.0584182 L9.33653647,16.2662518 C9.33653647,14.9464238 10.4159592,13.8726485 11.7426964,13.8726485 L15.2573254,13.8726485 C16.5840364,13.8726485 17.6634591,14.9464238 17.6634591,16.2662518 L17.6634591,20.6063705 C17.6634328,21.9262247 16.5839837,23 15.2572991,23 Z" id="Shape" fill="#FF3735"></path>
                    </g>
                </g>
            </g>
        </g>
    </g>
</svg>