<?xml version="1.0" encoding="UTF-8"?>
<svg width="70px" height="70px" viewBox="0 0 70 70" version="1.1" xmlns="http://www.w3.org/2000/svg" xmlns:xlink="http://www.w3.org/1999/xlink">
    <!-- Generator: Sketch 53.2 (72643) - https://sketchapp.com -->
    <title>Group 4</title>
    <desc>Created with Sketch.</desc>
    <g id="Page-1" stroke="none" stroke-width="1" fill="none" fill-rule="evenodd">
        <g id="小程序">
            <g id="Group-4">
                <polygon id="Rectangle" fill="#FE5B5B" points="0 -6.86256607e-15 70 -6.86256607e-15 0 70"></polygon>
                <g id="冠军" transform="translate(14.500000, 15.875000) rotate(-45.000000) translate(-14.500000, -15.875000) translate(4.000000, 7.000000)" fill-rule="nonzero">
                    <path d="M19.95625,11.434375 C18.31875,10.034375 18.31875,9.575 19.953125,8.140625 L19.94375,6.6375 C19.953125,5.9125 19.978125,5.1875 19.965625,4.465625 C19.953125,3.478125 19.30625,2.9625 18.334375,3.159375 C17.553125,3.315625 16.771875,3.475 16,3.66875 C15.60625,3.76875 15.34375,3.653125 15.065625,3.384375 C14.20625,2.546875 13.33125,1.725 12.45625,0.90625 C11.165625,-0.296875 9.834375,-0.296875 8.54375,0.909375 C7.665625,1.728125 6.790625,2.55 5.934375,3.3875 C5.65625,3.659375 5.390625,3.76875 5,3.66875 C4.228125,3.475 3.446875,3.31875 2.665625,3.159375 C1.70625,2.965625 1.04375,3.484375 1.025,4.46875 C1.0125,5.14375 1.040625,5.81875 1.05,6.490625 L1.040625,8.146875 C2.6875,9.534375 2.6875,10.05625 1.034375,11.43125 C1.028125,12.175 1.015625,12.921875 1.021875,13.665625 C1.034375,15.096875 1.85,16.021875 3.275,16.253125 C3.584375,16.51875 3.9625,16.515625 4.3375,16.515625 C8.446875,16.521875 12.55625,16.521875 16.665625,16.515625 C17.040625,16.515625 17.41875,16.51875 17.728125,16.253125 C19.171875,16.021875 19.959375,15.115625 19.96875,13.66875 C19.971875,12.921875 19.959375,12.178125 19.95625,11.434375 L19.95625,11.434375 Z M12.921875,9.353125 C12.44375,9.9625 11.8875,10.50625 11.284375,10.99375 C10.771875,11.409375 10.2125,11.4 9.703125,10.984375 C9.103125,10.49375 8.54375,9.953125 8.06875,9.340625 C7.584375,8.7125 7.63125,8.278125 8.175,7.675 C8.49375,7.325 8.8625,7.021875 9.159375,6.646875 C9.284375,6.490625 9.38125,6.328125 9.309375,6.190625 C9.421875,6.25625 9.534375,6.21875 9.625,6.15 C10.2375,5.68125 10.821875,5.66875 11.4,6.215625 C11.509375,6.31875 11.65,6.428125 11.825,6.340625 C11.76875,6.5 11.878125,6.6625 12.003125,6.815625 C12.253125,7.128125 12.5625,7.384375 12.83125,7.68125 C13.371875,8.284375 13.415625,8.721875 12.921875,9.353125 Z" id="Shape" fill="#FFC152"></path>
                    <path d="M3.275,16.25 L17.73125,16.25 C17.66875,17.615625 17.528125,17.746875 16.115625,17.746875 L4.890625,17.746875 C3.478125,17.746875 3.3375,17.615625 3.275,16.25 Z M19.95625,11.434375 C19.309375,11.321875 18.490625,10.403125 18.490625,9.790625 C18.490625,9.178125 19.30625,8.25625 19.95,8.140625 C21.3125,9.69375 21.3125,9.853125 19.95625,11.434375 L19.95625,11.434375 Z M1.040625,8.146875 C1.6875,8.246875 2.5125,9.171875 2.5125,9.790625 C2.5125,10.4125 1.6875,11.328125 1.034375,11.43125 C1.01875,11.4125 1.00625,11.390625 0.990625,11.371875 C-0.303125,9.815625 -0.3,9.71875 1.040625,8.146875 Z M9.290625,6.178125 C10.38125,5.275 10.6375,5.290625 11.859375,6.328125 C12.253125,6.74375 12.65,7.159375 13.040625,7.578125 C13.65,8.23125 13.66875,8.840625 13.059375,9.496875 C12.53125,10.065625 11.984375,10.615625 11.415625,11.140625 C10.840625,11.671875 10.16875,11.675 9.596875,11.15 C9.009375,10.609375 8.440625,10.040625 7.9,9.45 C7.334375,8.83125 7.36875,8.2125 7.953125,7.5875 C8.39375,7.1125 8.84375,6.646875 9.290625,6.178125 L9.290625,6.178125 Z" id="Shape" fill="#FF6994"></path>
                </g>
                <text id="TOP-3" transform="translate(28.060660, 25.939340) rotate(-45.000000) translate(-28.060660, -25.939340) " font-family="BodoniSvtyTwoITCTT-Bold, Bodoni 72" font-size="12" font-weight="bold" fill="#FFFFFF">
                    <tspan x="12.5606602" y="29.9393398">TOP 3</tspan>
                </text>
            </g>
        </g>
    </g>
</svg>